<svg xmlns="http://www.w3.org/2000/svg" width="128" height="21" viewBox="0 0 128 21" fill="none"><path d="M29.7776 1.8183H33.684L38.9004 14.5648H39.1011L44.3293 1.8183H48.2829V19.42H45.1554V7.32327H45.0138L40.1278 19.361H37.8383L33.0113 7.29965H32.8461V19.42H29.7776V1.8183Z" fill="white"></path><path d="M56.3025 19.6799C54.9807 19.6799 53.8398 19.4043 52.8799 18.853C51.9201 18.2938 51.1805 17.5063 50.6612 16.4904C50.1498 15.4744 49.8941 14.2773 49.8941 12.8991C49.8941 11.5367 50.1498 10.3435 50.6612 9.31971C51.1726 8.28802 51.8925 7.48472 52.8209 6.90981C53.7493 6.3349 54.843 6.04744 56.1018 6.04744C56.9122 6.04744 57.6793 6.17739 58.4032 6.43728C59.1349 6.69717 59.7801 7.09882 60.3387 7.64223C60.9052 8.18564 61.3497 8.87869 61.6723 9.72136C61.9949 10.5562 62.1562 11.5524 62.1562 12.7101V13.6788H51.3457V11.5879H60.6101L59.1585 12.2021C59.1585 11.454 59.0444 10.8042 58.8163 10.253C58.5881 9.6938 58.2498 9.25671 57.8013 8.94169C57.3528 8.62667 56.7942 8.46916 56.1254 8.46916C55.4567 8.46916 54.8862 8.62667 54.4142 8.94169C53.9421 9.25671 53.5841 9.68199 53.3402 10.2175C53.0963 10.7452 52.9744 11.3358 52.9744 11.9895V13.4425C52.9744 14.2458 53.112 14.9349 53.3874 15.5099C53.6707 16.0769 54.0641 16.51 54.5676 16.8093C55.079 17.1086 55.673 17.2582 56.3497 17.2582C56.7903 17.2582 57.1915 17.1952 57.5535 17.0692C57.9233 16.9432 58.238 16.7542 58.4976 16.5022C58.7651 16.2423 58.9697 15.9233 59.1113 15.5453L62.0146 15.8879C61.8257 16.6518 61.4756 17.3212 60.9642 17.8961C60.4606 18.4632 59.8115 18.9042 59.0169 19.2192C58.2301 19.5264 57.3253 19.6799 56.3025 19.6799Z" fill="white"></path><path d="M68.4645 19.6563C67.4338 19.6563 66.5054 19.3925 65.6793 18.8648C64.861 18.3293 64.2158 17.5536 63.7438 16.5376C63.2717 15.5217 63.0357 14.2892 63.0357 12.8401C63.0357 11.3673 63.2756 10.127 63.7556 9.11889C64.2434 8.11082 64.8964 7.3469 65.7147 6.82712C66.5329 6.30733 67.4495 6.04744 68.4645 6.04744C69.2434 6.04744 69.8807 6.17739 70.3764 6.43728C70.8721 6.69717 71.2655 7.01219 71.5566 7.38234C71.8556 7.74461 72.0837 8.08326 72.2411 8.39828H72.3709V1.8183H75.463V19.42H72.4299V17.3291H72.2411C72.0759 17.652 71.8437 17.9946 71.5448 18.3569C71.2458 18.7113 70.8485 19.0184 70.3528 19.2783C69.8571 19.5303 69.2277 19.6563 68.4645 19.6563ZM69.326 17.1046C69.9869 17.1046 70.5455 16.9274 71.0019 16.5731C71.4661 16.2108 71.8201 15.7107 72.0641 15.0728C72.308 14.427 72.4299 13.6788 72.4299 12.8283C72.4299 11.9698 72.308 11.2256 72.0641 10.5955C71.828 9.95763 71.4779 9.46541 71.0137 9.11889C70.5573 8.77237 69.9948 8.5991 69.326 8.5991C68.6415 8.5991 68.0672 8.78024 67.603 9.14251C67.1388 9.50479 66.7886 10.0049 66.5526 10.6428C66.3244 11.2807 66.2103 12.0092 66.2103 12.8283C66.2103 13.6473 66.3284 14.3797 66.5644 15.0255C66.8004 15.6713 67.1466 16.1793 67.603 16.5494C68.0672 16.9196 68.6415 17.1046 69.326 17.1046Z" fill="white"></path><path d="M77.5226 19.42V6.21283H80.6265V19.42H77.5226ZM79.0805 4.35815C78.5848 4.35815 78.1599 4.19276 77.8059 3.86199C77.4518 3.53122 77.2748 3.13351 77.2748 2.66885C77.2748 2.19632 77.4518 1.79467 77.8059 1.4639C78.1599 1.13313 78.5848 0.967742 79.0805 0.967742C79.5683 0.967742 79.9892 1.13313 80.3433 1.4639C80.6973 1.79467 80.8744 2.19238 80.8744 2.65704C80.8744 3.12957 80.6973 3.53122 80.3433 3.86199C79.9892 4.19276 79.5683 4.35815 79.0805 4.35815Z" fill="white"></path><path d="M88.4337 19.6799C87.1197 19.6799 85.9907 19.3925 85.0465 18.8176C84.1024 18.2348 83.3785 17.4315 82.875 16.4077C82.3715 15.3839 82.1197 14.2065 82.1197 12.8755C82.1197 11.5288 82.3754 10.3435 82.8868 9.31971C83.3982 8.2959 84.126 7.49653 85.0701 6.92162C86.0143 6.33884 87.1276 6.04744 88.4101 6.04744C89.488 6.04744 90.44 6.24433 91.2661 6.6381C92.0922 7.03188 92.7492 7.5871 93.237 8.30377C93.7327 9.01257 94.0159 9.84343 94.0867 10.7964H91.1127C91.034 10.3711 90.8806 9.98913 90.6524 9.65048C90.4242 9.31184 90.1253 9.04407 89.7555 8.84718C89.3935 8.6503 88.9608 8.55185 88.4573 8.55185C87.82 8.55185 87.2613 8.72511 86.7814 9.07164C86.3093 9.41028 85.9395 9.89856 85.672 10.5365C85.4045 11.1744 85.2708 11.9383 85.2708 12.8283C85.2708 13.7261 85.4006 14.5018 85.6602 15.1555C85.9199 15.8013 86.2897 16.3013 86.7696 16.6557C87.2495 17.0023 87.8121 17.1755 88.4573 17.1755C89.1418 17.1755 89.7201 16.9747 90.1921 16.5731C90.6721 16.1714 90.9789 15.6162 91.1127 14.9074H94.0867C94.0159 15.8446 93.7405 16.6715 93.2606 17.3882C92.7807 18.1048 92.1316 18.6679 91.3133 19.0775C90.495 19.4791 89.5352 19.6799 88.4337 19.6799Z" fill="white"></path><path d="M101.268 19.6799C99.9781 19.6799 98.8608 19.3964 97.9167 18.8294C96.9725 18.2623 96.2408 17.4669 95.7215 16.4431C95.2101 15.4193 94.9544 14.2301 94.9544 12.8755C94.9544 11.513 95.2101 10.3199 95.7215 9.29609C96.2408 8.2644 96.9725 7.46503 97.9167 6.898C98.8608 6.33096 99.9781 6.04744 101.268 6.04744C102.559 6.04744 103.676 6.33096 104.62 6.898C105.564 7.46503 106.296 8.2644 106.815 9.29609C107.335 10.3199 107.594 11.513 107.594 12.8755C107.594 14.2301 107.335 15.4193 106.815 16.4431C106.296 17.4669 105.564 18.2623 104.62 18.8294C103.676 19.3964 102.559 19.6799 101.268 19.6799ZM101.268 17.1755C101.984 17.1755 102.574 16.9865 103.039 16.6085C103.503 16.2226 103.849 15.7028 104.077 15.0491C104.313 14.3955 104.431 13.6709 104.431 12.8755C104.431 12.0643 104.313 11.3319 104.077 10.6782C103.849 10.0246 103.503 9.50873 103.039 9.1307C102.574 8.7448 101.984 8.55185 101.268 8.55185C100.568 8.55185 99.982 8.7448 99.5099 9.1307C99.0378 9.50873 98.6838 10.0246 98.4477 10.6782C98.2196 11.3319 98.1055 12.0643 98.1055 12.8755C98.1055 13.6709 98.2196 14.3955 98.4477 15.0491C98.6838 15.7028 99.0378 16.2226 99.5099 16.6085C99.982 16.9865 100.568 17.1755 101.268 17.1755Z" fill="white"></path><path d="M109.064 19.42V6.21283H112.073V8.43372H112.215C112.451 7.66192 112.864 7.07126 113.454 6.66173C114.044 6.24433 114.717 6.03563 115.472 6.03563C115.637 6.03563 115.826 6.0435 116.039 6.05926C116.259 6.07501 116.44 6.09469 116.581 6.11832V8.97713C116.448 8.92988 116.239 8.8905 115.956 8.859C115.673 8.82749 115.401 8.81174 115.142 8.81174C114.567 8.81174 114.056 8.93381 113.607 9.17795C113.159 9.4221 112.805 9.7568 112.545 10.1821C112.293 10.6074 112.168 11.1035 112.168 11.6706V19.42H109.064Z" fill="white"></path><path d="M121.049 19.6918C120.207 19.6918 119.452 19.5421 118.783 19.2428C118.114 18.9357 117.587 18.4868 117.201 17.8961C116.816 17.3055 116.623 16.577 116.623 15.7107C116.623 14.9704 116.761 14.3561 117.036 13.8678C117.311 13.3795 117.685 12.9897 118.157 12.6983C118.637 12.4069 119.176 12.1864 119.774 12.0368C120.372 11.8793 120.99 11.769 121.627 11.706C122.406 11.6194 123.035 11.5445 123.515 11.4815C123.995 11.4185 124.341 11.3162 124.554 11.1744C124.774 11.0326 124.884 10.8121 124.884 10.5129V10.4538C124.884 9.81587 124.695 9.31971 124.318 8.96532C123.94 8.61092 123.389 8.43372 122.666 8.43372C121.902 8.43372 121.297 8.5991 120.848 8.92988C120.407 9.26065 120.109 9.65048 119.951 10.0994L117.06 9.68592C117.288 8.88262 117.666 8.2132 118.193 7.67767C118.72 7.13426 119.361 6.72867 120.116 6.46091C120.88 6.18526 121.721 6.04744 122.642 6.04744C123.271 6.04744 123.901 6.12226 124.53 6.27189C125.16 6.41365 125.738 6.65779 126.265 7.00432C126.792 7.35084 127.213 7.81549 127.528 8.39828C127.843 8.98107 128 9.70955 128 10.5837V19.42H125.014V17.6008H124.92C124.731 17.9631 124.463 18.3057 124.117 18.6286C123.779 18.9436 123.354 19.1995 122.843 19.3964C122.339 19.5933 121.741 19.6918 121.049 19.6918ZM121.839 17.4C122.469 17.4 123.012 17.2779 123.468 17.0338C123.924 16.7818 124.278 16.451 124.53 16.0415C124.782 15.6241 124.908 15.1712 124.908 14.6829V13.1354C124.806 13.2141 124.64 13.289 124.412 13.3598C124.184 13.4229 123.924 13.4819 123.633 13.537C123.342 13.5922 123.055 13.6394 122.772 13.6788C122.496 13.7182 122.256 13.7497 122.052 13.7733C121.588 13.8363 121.171 13.9426 120.801 14.0923C120.439 14.234 120.152 14.4309 119.939 14.6829C119.727 14.9349 119.621 15.2618 119.621 15.6634C119.621 16.2383 119.829 16.6715 120.246 16.9629C120.663 17.2543 121.194 17.4 121.839 17.4Z" fill="white"></path><path d="M7.99473 18.3589C8.40621 18.7209 8.83096 19.0943 9.26789 19.4814C9.27087 19.4841 9.27391 19.4868 9.27695 19.4894L10.7305 20.7472C10.9252 20.9158 11.1669 21 11.4086 21C11.6503 21 11.8921 20.9157 12.0868 20.7472L13.5401 19.4894C13.5431 19.4868 13.5461 19.4841 13.5491 19.4815C16.4265 16.9322 18.5838 14.9806 20.1446 13.0772C21.9675 10.8541 22.8166 8.84405 22.8166 6.75149C22.8166 2.96557 19.8564 1.21384e-09 16.0774 1.21384e-09C14.3789 1.21384e-09 12.7007 0.640709 11.4086 1.75135C10.1162 0.64064 8.43795 1.21384e-09 6.73941 1.21384e-09C2.9603 -6.92797e-05 0 2.96557 0 6.75142C0 11.3278 3.18049 14.1249 7.99473 18.3589ZM7.25891 8.42164H10.0251V5.65034H12.7914V8.42164H15.5576V11.1929H12.7914V13.964H10.0251V11.1929H7.25891V8.42164Z" fill="#5AB0F2"></path></svg>